<svg width="387" height="232" viewBox="0 0 387 232" fill="none" xmlns="http://www.w3.org/2000/svg">
<g filter="url(#filter0_ddd_2291_16694)">
<path d="M113.333 116C113.333 71.8172 149.151 36 193.333 36C237.516 36 273.333 71.8172 273.333 116C273.333 160.183 237.516 196 193.333 196C149.151 196 113.333 160.183 113.333 116Z" fill="#FBFBFB"/>
<g filter="url(#filter1_ddd_2291_16694)">
<path d="M123.333 116C123.333 77.3401 154.673 46 193.333 46C231.993 46 263.333 77.3401 263.333 116C263.333 154.66 231.993 186 193.333 186C154.673 186 123.333 154.66 123.333 116Z" fill="#FBFBFB"/>
<g filter="url(#filter2_ddd_2291_16694)">
<path d="M133.333 116C133.333 82.8629 160.196 56 193.333 56C226.47 56 253.333 82.8629 253.333 116C253.333 149.137 226.47 176 193.333 176C160.196 176 133.333 149.137 133.333 116Z" fill="white"/>
<g clip-path="url(#clip0_2291_16694)">
<mask id="mask0_2291_16694" style="mask-type:luminance" maskUnits="userSpaceOnUse" x="143" y="66" width="101" height="100">
<path d="M143.333 66H243.333V166H143.333V66Z" fill="white"/>
</mask>
<g mask="url(#mask0_2291_16694)">
<g filter="url(#filter3_ii_2291_16694)">
<path d="M193.145 67.5315C199.601 67.5315 205.88 68.8087 211.783 71.3372C217.489 73.7887 222.607 77.2744 226.995 81.7201C231.39 86.1729 234.869 91.3998 237.245 97.1201C239.746 103.113 241.023 109.522 241.004 115.989C241.004 121.092 240.239 126.072 238.704 130.874L228.98 125.752C229.828 122.586 230.239 119.294 230.239 115.989C230.239 110.909 229.257 105.989 227.328 101.366C225.481 96.9327 222.783 92.8815 219.378 89.4287C216.028 86.0223 212.023 83.2877 207.589 81.3801C203.04 79.4292 198.121 78.4248 193.148 78.4315C188.128 78.4315 183.266 79.4287 178.701 81.3801C174.267 83.2877 170.262 86.0223 166.913 89.4287C163.507 92.8816 160.809 96.9328 158.963 101.366C157.028 106.011 156.039 110.977 156.051 115.989C156.051 119.317 156.483 122.606 157.31 125.772L147.589 130.894C146.053 126.067 145.276 121.042 145.286 115.989C145.286 109.454 146.545 103.097 149.045 97.1201C151.425 91.4007 154.905 86.1742 159.298 81.7201C163.617 77.3222 168.787 73.7941 174.51 71.3372C180.379 68.8171 186.728 67.5207 193.145 67.5315ZM193.145 66.1772C165.969 66.1772 143.951 88.4744 143.951 115.989C143.951 121.889 144.975 127.546 146.825 132.806L158.889 126.469C157.879 123.07 157.368 119.549 157.372 116.012C157.372 111.109 158.319 106.366 160.186 101.923C161.973 97.6471 164.578 93.739 167.863 90.4058C171.096 87.1199 174.96 84.4799 179.236 82.6344C183.617 80.7488 188.357 79.7783 193.148 79.7858C197.972 79.7858 202.675 80.743 207.06 82.6344C211.337 84.4795 215.202 87.1196 218.436 90.4058C221.721 93.7383 224.326 97.6454 226.113 101.92C227.981 106.395 228.936 111.18 228.925 116.009C228.925 119.597 228.413 123.103 227.41 126.472L239.475 132.806C241.387 127.394 242.357 121.71 242.345 115.989C242.345 88.4744 220.322 66.1772 193.145 66.1772Z" fill="url(#paint0_linear_2291_16694)"/>
</g>
<g filter="url(#filter4_ii_2291_16694)">
<path d="M193.145 165.8C214.498 165.8 232.663 152.035 239.469 132.786L227.407 126.452C227.045 127.683 226.611 128.894 226.107 130.077C224.32 134.352 221.715 138.259 218.43 141.592C215.198 144.877 211.335 147.517 207.06 149.363C202.679 151.25 197.94 152.221 193.148 152.215C188.325 152.215 183.619 151.257 179.233 149.363C174.957 147.518 171.093 144.878 167.86 141.592C164.575 138.259 161.97 134.352 160.183 130.077C159.691 128.889 159.257 127.678 158.883 126.449L146.822 132.786C153.63 152.035 171.792 165.8 193.145 165.8ZM169.51 110.252H168.098L173.607 97.3402H174.866L180.336 110.255H178.901L177.504 106.866H170.91L169.51 110.252ZM171.38 105.652H177.01L174.195 98.7945L171.38 105.652ZM181.928 110.252V97.3431H183.228V110.257H181.928V110.252ZM197.004 108.16C196.542 108.871 195.907 109.46 195.154 109.875C194.731 110.104 194.282 110.284 193.816 110.412C192.401 110.763 190.907 110.65 189.566 110.092C188.771 109.767 188.054 109.285 187.46 108.677C186.858 108.056 186.389 107.325 186.08 106.526C185.742 105.661 185.575 104.742 185.589 103.817C185.589 102.84 185.766 101.923 186.101 101.106C186.425 100.311 186.899 99.5812 187.498 98.9545C188.114 98.3391 188.851 97.8507 189.666 97.5183C190.481 97.186 191.356 97.0166 192.239 97.0202C193.157 97.0125 194.066 97.2038 194.898 97.5802C195.292 97.7574 195.645 97.9802 195.98 98.2174C196.295 98.4745 196.569 98.7545 196.786 99.0745L195.704 99.8717C195.551 99.6478 195.374 99.4409 195.175 99.2545C194.941 99.0374 194.675 98.8554 194.386 98.7145C194.074 98.5534 193.743 98.4268 193.401 98.3374C192.274 98.0757 191.09 98.1873 190.036 98.6545C189.394 98.9517 188.822 99.3738 188.355 99.8948C187.888 100.416 187.536 101.025 187.322 101.683C187.086 102.36 186.969 103.077 186.969 103.835C186.969 104.592 187.086 105.309 187.339 105.989C187.595 106.666 187.93 107.263 188.404 107.78C188.857 108.3 189.407 108.697 190.075 109.017C190.748 109.318 191.48 109.473 192.22 109.473C192.961 109.473 193.693 109.318 194.366 109.017C195.033 108.717 195.586 108.217 196.019 107.56L197.004 108.16ZM198.754 97.3431H202.354C203.001 97.3431 203.595 97.4202 204.125 97.5602C204.657 97.7002 205.11 97.9202 205.483 98.1974C205.862 98.4789 206.159 98.8497 206.348 99.2745C206.561 99.7523 206.668 100.268 206.663 100.789C206.663 101.366 206.566 101.883 206.348 102.303C206.145 102.724 205.843 103.092 205.466 103.377C205.052 103.677 204.584 103.9 204.086 104.035C203.557 104.177 202.966 104.255 202.316 104.255H200.051V110.255H198.754V97.3402V97.3431ZM202.254 103.14C203.278 103.14 204.048 102.94 204.578 102.54C205.107 102.14 205.366 101.566 205.366 100.789C205.366 99.9888 205.089 99.3917 204.539 99.0345C203.986 98.6574 203.222 98.4774 202.236 98.4774H200.03V103.14H202.254ZM207.375 110.252H205.957L211.466 97.3402H212.725L218.195 110.255H216.76L215.363 106.866H208.775L207.375 110.252ZM209.242 105.652H214.872L212.057 98.7945L209.242 105.652Z" fill="url(#paint1_linear_2291_16694)"/>
</g>
<g filter="url(#filter5_ii_2291_16694)">
<path d="M174.707 125.077C174.434 124.725 174.075 124.444 173.663 124.26C173.085 123.98 172.428 123.896 171.795 124.02C171.59 124.051 171.394 124.126 171.222 124.24C171.05 124.342 170.902 124.478 170.789 124.64C170.664 124.829 170.603 125.05 170.613 125.274C170.613 125.494 170.651 125.674 170.751 125.814C170.851 125.968 170.986 126.097 171.145 126.192C171.322 126.292 171.519 126.412 171.775 126.492C172.01 126.592 172.286 126.672 172.58 126.772C173.013 126.909 173.466 127.069 173.939 127.249C174.41 127.429 174.822 127.666 175.219 127.946C175.613 128.246 175.925 128.603 176.183 129.023C176.436 129.46 176.557 129.997 176.557 130.634C176.557 131.372 176.419 132.012 176.145 132.569C175.893 133.088 175.521 133.544 175.06 133.903C174.596 134.265 174.061 134.53 173.486 134.68C172.898 134.86 172.286 134.937 171.675 134.937C170.767 134.938 169.866 134.776 169.019 134.46C168.211 134.168 167.483 133.698 166.892 133.089L168.922 131.014C169.236 131.414 169.648 131.729 170.16 131.992C170.672 132.249 171.183 132.392 171.675 132.392C171.901 132.395 172.127 132.367 172.345 132.309C172.552 132.275 172.748 132.193 172.916 132.072C173.082 131.959 173.218 131.808 173.31 131.632C173.41 131.427 173.456 131.201 173.445 130.974C173.453 130.756 173.392 130.54 173.269 130.357C173.133 130.172 172.959 130.016 172.757 129.9C172.498 129.744 172.222 129.616 171.933 129.52C171.598 129.4 171.222 129.28 170.81 129.14C170.402 129.002 170.001 128.842 169.61 128.663C169.224 128.489 168.872 128.253 168.566 127.966C168.25 127.67 167.997 127.318 167.819 126.929C167.623 126.454 167.529 125.946 167.542 125.434C167.522 124.834 167.655 124.237 167.931 123.699C168.206 123.16 168.614 122.696 169.119 122.349C169.589 122.029 170.119 121.769 170.71 121.629C172.029 121.286 173.426 121.348 174.707 121.809C175.454 122.066 176.122 122.466 176.675 123.003L174.707 125.077ZM191.492 128.126C191.492 129.14 191.316 130.077 190.963 130.934C190.636 131.748 190.14 132.487 189.507 133.106C188.895 133.706 188.148 134.183 187.301 134.5C186.417 134.833 185.476 135.003 184.528 135C183.577 135.012 182.634 134.842 181.751 134.5C180.927 134.186 180.177 133.712 179.548 133.106C178.921 132.482 178.427 131.744 178.092 130.934C177.739 130.097 177.563 129.163 177.563 128.126C177.563 127.089 177.739 126.154 178.092 125.314C178.445 124.477 178.916 123.78 179.548 123.183C180.182 122.592 180.932 122.131 181.754 121.829C182.64 121.502 183.58 121.34 184.528 121.352C185.528 121.352 186.454 121.509 187.301 121.829C188.13 122.126 188.885 122.59 189.516 123.19C190.148 123.791 190.641 124.515 190.963 125.314C191.316 126.152 191.492 127.089 191.492 128.126ZM188.186 128.126C188.186 127.566 188.089 127.049 187.913 126.552C187.744 126.092 187.489 125.666 187.163 125.294C186.827 124.936 186.416 124.652 185.958 124.46C185.5 124.267 185.006 124.172 184.507 124.18C183.957 124.18 183.483 124.28 183.03 124.48C182.578 124.68 182.207 124.957 181.869 125.294C181.535 125.66 181.281 126.088 181.122 126.552C180.945 127.029 180.866 127.566 180.866 128.123C180.866 128.703 180.966 129.24 181.142 129.74C181.319 130.237 181.575 130.654 181.889 131.014C182.204 131.372 182.598 131.652 183.03 131.852C183.483 132.052 183.975 132.149 184.507 132.149C185.036 132.149 185.53 132.049 185.983 131.852C186.436 131.649 186.84 131.356 187.169 130.992C187.498 130.627 187.745 130.2 187.892 129.737C188.089 129.24 188.186 128.703 188.186 128.126ZM202.336 134.4C201.434 134.797 200.453 134.994 199.463 134.977C198.526 134.989 197.597 134.82 196.728 134.48C195.909 134.16 195.168 133.681 194.548 133.071C193.929 132.461 193.445 131.734 193.128 130.934C192.764 130.054 192.583 129.112 192.595 128.163C192.595 127.129 192.772 126.192 193.125 125.354C193.45 124.551 193.946 123.824 194.581 123.22C195.215 122.616 195.974 122.149 196.807 121.849C197.654 121.529 198.557 121.369 199.522 121.369C200.428 121.369 201.316 121.529 202.18 121.849C203.045 122.166 203.754 122.646 204.304 123.263L202.198 125.374C201.91 124.979 201.515 124.668 201.057 124.477C200.595 124.278 200.096 124.176 199.591 124.176C199.086 124.176 198.586 124.278 198.125 124.477C197.678 124.669 197.281 124.955 196.963 125.314C196.637 125.686 196.384 126.112 196.216 126.572C195.851 127.605 195.851 128.727 196.216 129.76C196.392 130.237 196.648 130.654 196.963 131.014C197.289 131.369 197.69 131.652 198.138 131.844C198.585 132.036 199.07 132.133 199.56 132.129C200.088 132.152 200.612 132.043 201.085 131.813C201.557 131.583 201.96 131.239 202.257 130.814L204.404 132.866C203.838 133.518 203.133 134.042 202.336 134.4ZM210.148 132.069L215.128 127.526C215.423 127.252 215.675 126.936 215.875 126.589C216.072 126.272 216.169 125.932 216.169 125.532C216.179 125.327 216.146 125.122 216.072 124.931C215.998 124.739 215.883 124.564 215.736 124.417C215.582 124.275 215.4 124.165 215.201 124.094C215.002 124.022 214.79 123.99 214.578 124C214.342 123.992 214.108 124.037 213.893 124.13C213.678 124.223 213.488 124.362 213.336 124.537C213.001 124.94 212.802 125.434 212.766 125.952L209.875 125.552C209.951 124.894 210.13 124.317 210.404 123.8C210.935 122.79 211.854 122.024 212.963 121.669C213.513 121.469 214.104 121.389 214.733 121.389C215.322 121.389 215.895 121.469 216.445 121.629C216.998 121.789 217.489 122.029 217.922 122.366C218.354 122.683 218.71 123.103 218.966 123.6C219.222 124.1 219.36 124.677 219.36 125.354C219.36 125.812 219.301 126.232 219.183 126.612C218.943 127.337 218.523 127.993 217.96 128.523C217.686 128.8 217.41 129.06 217.116 129.34L214.163 132.009H219.378V134.68H210.148V132.069ZM218.198 115.692H168.095V116.249H218.198V115.692ZM153.786 114.437L153.748 114.934L149.46 112.643L149.498 112.203L154.104 110.632L154.063 111.146L152.863 111.546L152.686 113.877L153.786 114.437ZM152.254 113.657L152.41 111.666L149.969 112.466L152.254 113.657ZM154.28 109.634L154.201 110.092L149.813 109.414L149.892 108.957L154.28 109.634ZM154.575 104.714C154.675 104.812 154.751 104.932 154.83 105.052C154.909 105.182 154.969 105.322 155.007 105.469C155.048 105.629 155.066 105.789 155.086 105.969C155.093 106.478 154.942 106.978 154.654 107.403C154.487 107.647 154.269 107.854 154.015 108.011C153.761 108.169 153.476 108.273 153.178 108.317C152.864 108.364 152.545 108.351 152.236 108.28C151.92 108.212 151.623 108.076 151.369 107.88C151.119 107.705 150.911 107.482 150.757 107.223C150.59 106.957 150.479 106.661 150.432 106.353C150.384 106.045 150.401 105.731 150.48 105.429C150.522 105.273 150.575 105.12 150.639 104.972C150.719 104.832 150.798 104.692 150.875 104.572C150.975 104.454 151.072 104.334 151.169 104.254C151.286 104.154 151.407 104.094 151.525 104.034L151.701 104.474C151.625 104.494 151.545 104.552 151.445 104.612C151.355 104.679 151.269 104.753 151.189 104.832C151.113 104.932 151.054 105.032 150.975 105.132C150.776 105.533 150.731 105.989 150.846 106.419C150.961 106.85 151.23 107.227 151.604 107.483C152.024 107.761 152.535 107.881 153.039 107.82C153.282 107.789 153.516 107.715 153.73 107.6C153.945 107.479 154.132 107.317 154.28 107.123C154.439 106.908 154.553 106.664 154.616 106.406C154.675 106.149 154.675 105.909 154.633 105.649C154.577 105.398 154.455 105.165 154.28 104.972L154.575 104.714ZM151.248 102.9L151.66 101.683C151.729 101.48 151.822 101.287 151.939 101.106C152.024 100.955 152.145 100.825 152.292 100.729C152.425 100.632 152.581 100.57 152.745 100.549C152.924 100.531 153.104 100.55 153.275 100.606C153.445 100.657 153.601 100.747 153.728 100.869C153.855 100.991 153.95 101.141 154.004 101.306C154.064 101.478 154.084 101.662 154.063 101.843C154.043 102.053 153.997 102.261 153.925 102.46L153.669 103.22L155.639 103.897L155.501 104.334L151.248 102.9ZM153.295 103.12L153.551 102.38C153.666 102.108 153.686 101.807 153.61 101.523C153.573 101.414 153.508 101.315 153.423 101.235C153.337 101.155 153.233 101.097 153.119 101.066C153.011 101.018 152.891 101 152.773 101.015C152.655 101.029 152.544 101.074 152.451 101.146C152.234 101.336 152.082 101.587 152.016 101.863L151.76 102.6L153.295 103.12ZM156.445 101.486L156.248 101.943L152.942 98.3373L153.119 97.9173L157.98 97.9573L157.783 98.4145L156.504 98.3973L155.58 100.529L156.445 101.486ZM155.266 100.229L156.051 98.4173L153.492 98.3573L155.266 100.229ZM156.957 92.2802C156.793 92.2993 156.633 92.3467 156.486 92.4202C156.32 92.5171 156.183 92.6551 156.089 92.8202C156.033 92.9199 155.987 93.0253 155.954 93.1345C155.913 93.2573 155.913 93.3745 155.913 93.4773C155.928 93.5941 155.962 93.7078 156.013 93.8145C156.072 93.9145 156.169 94.0145 156.286 94.0916C156.404 94.1716 156.522 94.2116 156.622 94.2116C156.729 94.212 156.836 94.1926 156.936 94.1545C157.043 94.1091 157.142 94.0484 157.23 93.9745L157.525 93.7345C157.642 93.6345 157.783 93.5145 157.922 93.4145C158.05 93.3211 158.188 93.2415 158.333 93.1773C158.483 93.1189 158.643 93.0916 158.804 93.0973C158.963 93.0973 159.139 93.1773 159.336 93.2973C159.533 93.4145 159.672 93.5545 159.769 93.7145C159.868 93.8626 159.923 94.0348 159.928 94.2116C159.964 94.569 159.873 94.9277 159.672 95.2288C159.524 95.4566 159.329 95.6529 159.101 95.8059C158.881 95.9559 158.622 96.0448 158.354 96.063L158.313 95.5659C158.489 95.5659 158.689 95.5288 158.866 95.4288C159.055 95.3242 159.211 95.1722 159.319 94.9888C159.376 94.8881 159.421 94.7818 159.454 94.6716C159.49 94.5549 159.497 94.4315 159.475 94.3116C159.465 94.1914 159.425 94.0754 159.357 93.9745C159.286 93.863 159.192 93.7675 159.08 93.6945C158.97 93.622 158.84 93.5805 158.707 93.5745C158.589 93.5745 158.472 93.5945 158.354 93.6545C158.238 93.7138 158.126 93.7806 158.019 93.8545C157.906 93.9459 157.794 94.0382 157.683 94.1316L157.33 94.4316C157.215 94.5251 157.081 94.5933 156.936 94.6316C156.796 94.6701 156.65 94.6893 156.504 94.6888C156.32 94.6601 156.144 94.5938 155.988 94.4943C155.831 94.3949 155.699 94.2644 155.598 94.1116C155.517 93.956 155.464 93.7877 155.442 93.6145C155.423 93.44 155.443 93.2635 155.501 93.0973C155.546 92.9373 155.612 92.7836 155.698 92.6402C155.826 92.4035 156.016 92.2036 156.248 92.0602C156.42 91.9477 156.614 91.8726 156.819 91.8402L156.957 92.2802ZM161.148 90.1288C161.169 90.1488 161.186 90.1688 161.228 90.1859C161.245 90.2088 161.286 90.2288 161.307 90.2659L159.848 92.2602C159.969 92.34 160.102 92.4008 160.242 92.4402C160.376 92.4763 160.517 92.4832 160.654 92.4602C160.798 92.4404 160.936 92.3909 161.059 92.315C161.182 92.2391 161.286 92.1386 161.366 92.0202C161.491 91.8583 161.565 91.6649 161.58 91.463C161.602 91.2886 161.582 91.1116 161.522 90.9459L161.916 90.8459C161.986 91.0924 161.999 91.351 161.954 91.603C161.91 91.8353 161.809 92.0539 161.66 92.2402C161.544 92.4033 161.395 92.5419 161.223 92.648C161.051 92.754 160.858 92.8252 160.657 92.8573C160.459 92.8839 160.258 92.8703 160.066 92.8173C159.859 92.7605 159.665 92.6654 159.495 92.5373C159.331 92.4044 159.185 92.2507 159.063 92.0802C158.896 91.8284 158.813 91.5333 158.823 91.2341C158.834 90.935 158.938 90.646 159.122 90.4059C159.241 90.2374 159.395 90.0952 159.575 89.9888C159.727 89.891 159.904 89.8357 160.086 89.8288C160.263 89.8088 160.439 89.8288 160.616 89.8888C160.809 89.9317 160.99 90.0134 161.148 90.1288ZM160.775 90.4059C160.571 90.2583 160.319 90.1873 160.066 90.2059C159.83 90.2288 159.613 90.3659 159.419 90.6259C159.339 90.7418 159.279 90.8691 159.239 91.003C159.203 91.1334 159.196 91.2698 159.219 91.403C159.239 91.543 159.278 91.6602 159.336 91.7602C159.395 91.8802 159.475 91.9802 159.572 92.0602L160.775 90.4059ZM160.892 88.8116C160.802 88.738 160.711 88.6656 160.619 88.5945L160.875 88.2945C160.933 88.3345 161.013 88.3945 161.089 88.4545C161.169 88.5116 161.228 88.5745 161.266 88.6145C161.191 88.4374 161.164 88.2444 161.189 88.0545C161.216 87.8543 161.306 87.6669 161.445 87.5173C161.483 87.4821 161.516 87.4417 161.542 87.3973C161.57 87.3648 161.604 87.3376 161.642 87.3173L161.916 87.6373C161.898 87.6573 161.857 87.6773 161.819 87.7173C161.78 87.7574 161.74 87.7974 161.701 87.8373C161.618 87.9182 161.563 88.0219 161.542 88.1345C161.505 88.2442 161.498 88.3613 161.522 88.4745C161.544 88.6073 161.591 88.735 161.66 88.8516C161.739 88.9945 161.857 89.1116 161.995 89.2516L163.136 90.2488L162.86 90.5859L161.11 89.0716C161.072 88.9516 160.992 88.8888 160.892 88.8116ZM161.698 85.6459C161.757 85.7033 161.791 85.7798 161.795 85.8606C161.799 85.9414 161.772 86.0207 161.719 86.083C161.665 86.1352 161.596 86.1701 161.522 86.183C161.482 86.1851 161.442 86.1791 161.404 86.1653C161.367 86.1516 161.333 86.1303 161.304 86.103C161.244 86.0443 161.209 85.9657 161.207 85.883C161.207 85.803 161.225 85.723 161.283 85.6659C161.337 85.6136 161.406 85.5787 161.48 85.5659C161.56 85.5659 161.639 85.5859 161.698 85.6459ZM164.61 88.5316L164.316 88.8516L162.169 86.8002L162.463 86.4802L164.61 88.5316ZM166.207 86.9402L165.872 87.2773L162.96 85.963L163.313 85.623L165.733 86.7802L164.71 84.2688L165.045 83.9516L166.207 86.9402ZM167.604 82.6973C167.47 82.6607 167.329 82.6539 167.192 82.6773C167.04 82.7113 166.898 82.7798 166.778 82.8773C166.651 82.9794 166.55 83.1085 166.483 83.2545C166.426 83.3881 166.387 83.5283 166.366 83.6716C166.366 83.8116 166.383 83.9716 166.425 84.1116C166.483 84.2488 166.56 84.3888 166.66 84.5288C166.752 84.6596 166.872 84.769 167.013 84.8488C167.151 84.9288 167.289 84.9659 167.425 85.0059C167.57 85.0295 167.718 85.0227 167.86 84.9859C168.009 84.937 168.148 84.8635 168.272 84.7688C168.405 84.664 168.507 84.5257 168.566 84.3688C168.62 84.2362 168.647 84.0944 168.645 83.9516L169.039 83.9316C169.043 84.1469 168.997 84.3603 168.906 84.5565C168.814 84.7526 168.679 84.9266 168.51 85.0659C168.355 85.2061 168.172 85.3125 167.971 85.378C167.771 85.4436 167.558 85.4667 167.348 85.4459C167.153 85.4256 166.964 85.3642 166.795 85.2659C166.611 85.1594 166.451 85.0175 166.325 84.8488C166.155 84.6452 166.039 84.4042 165.988 84.147C165.937 83.8898 165.952 83.6243 166.032 83.374C166.111 83.1238 166.253 82.8964 166.445 82.7121C166.637 82.5278 166.872 82.3922 167.13 82.3173C167.334 82.2512 167.553 82.2443 167.76 82.2973L167.604 82.6973ZM171.028 81.103C171.048 81.123 171.069 81.1602 171.086 81.1802C171.111 81.2102 171.131 81.244 171.145 81.2802L169.139 82.6745C169.302 82.9053 169.547 83.0685 169.828 83.1316C169.964 83.1515 170.103 83.1515 170.239 83.1316C170.385 83.1102 170.522 83.0487 170.633 82.9545C170.806 82.8408 170.943 82.6825 171.028 82.4973C171.099 82.333 171.133 82.1556 171.128 81.9773L171.539 81.9973C171.531 82.2542 171.463 82.506 171.342 82.7345C171.234 82.9278 171.085 83.0969 170.905 83.2308C170.725 83.3647 170.518 83.4603 170.298 83.5116C170.104 83.5511 169.904 83.5511 169.71 83.5116C169.515 83.4688 169.328 83.3954 169.157 83.2945C168.895 83.1159 168.689 82.871 168.56 82.5864C168.431 82.3017 168.386 81.9883 168.428 81.6802C168.454 81.4854 168.522 81.2981 168.627 81.1299C168.732 80.9618 168.871 80.8165 169.036 80.703C169.206 80.5771 169.401 80.4893 169.61 80.4459C169.791 80.4045 169.979 80.4044 170.161 80.4455C170.342 80.4867 170.511 80.568 170.654 80.683C170.809 80.7946 170.936 80.938 171.028 81.103ZM170.595 81.2202C170.446 81.0186 170.232 80.8716 169.986 80.803C169.751 80.743 169.492 80.803 169.236 80.983C169.12 81.0576 169.026 81.1599 168.963 81.2802C168.891 81.3894 168.844 81.5121 168.825 81.6402C168.805 81.7652 168.805 81.8923 168.825 82.0173C168.843 82.1457 168.89 82.2686 168.963 82.3773L170.595 81.2202ZM176.91 77.1373C177.199 77.7071 177.249 78.3641 177.048 78.9688C176.897 79.4076 176.617 79.794 176.243 80.0808C175.869 80.3675 175.417 80.542 174.942 80.583C174.641 80.6044 174.338 80.5641 174.053 80.4647C173.768 80.3652 173.508 80.209 173.289 80.0059C173.046 79.7879 172.852 79.5233 172.719 79.2288C172.428 78.6582 172.379 78 172.58 77.3945C172.732 76.9556 173.012 76.5692 173.386 76.2825C173.76 75.9958 174.212 75.8212 174.686 75.7802C174.988 75.759 175.292 75.7997 175.576 75.8996C175.861 75.9996 176.121 76.1565 176.339 76.3602C176.575 76.5802 176.775 76.8373 176.91 77.1373ZM176.478 77.3573C176.369 77.1292 176.223 76.9198 176.045 76.7373C175.878 76.5584 175.669 76.4212 175.436 76.3373C175.215 76.2377 174.97 76.1973 174.728 76.2202C174.459 76.2301 174.197 76.2984 173.96 76.4202C173.719 76.5358 173.505 76.6982 173.33 76.8973C173.176 77.0866 173.062 77.3037 172.994 77.5362C172.926 77.7686 172.907 78.0118 172.936 78.2516C172.959 78.5087 173.033 78.7591 173.154 78.9888C173.262 79.2174 173.408 79.4269 173.586 79.6088C173.755 79.7765 173.955 79.9121 174.175 80.0088C174.412 80.0985 174.667 80.1378 174.922 80.124C175.176 80.1102 175.425 80.0436 175.651 79.9288C175.892 79.8123 176.107 79.6489 176.28 79.4488C176.435 79.2596 176.55 79.0425 176.617 78.81C176.685 78.5775 176.704 78.3343 176.675 78.0945C176.668 77.8374 176.6 77.5852 176.478 77.3573ZM177.678 76.4802C177.639 76.3602 177.58 76.2602 177.539 76.1602L177.913 76.0202L178.03 76.2602C178.072 76.3602 178.089 76.4202 178.13 76.4802H178.151C178.165 76.2861 178.233 76.0993 178.348 75.9402C178.467 75.7805 178.63 75.6567 178.819 75.583C178.878 75.563 178.919 75.543 178.957 75.543C178.998 75.523 179.036 75.523 179.095 75.523L179.192 75.923C179.175 75.923 179.133 75.923 179.075 75.9402L178.898 76.0002C178.794 76.0413 178.7 76.1025 178.622 76.1802C178.544 76.2613 178.484 76.3565 178.445 76.4602C178.349 76.7559 178.37 77.0759 178.504 77.3573L179.033 78.7916L178.642 78.9488L177.795 76.7573C177.762 76.6625 177.723 76.5699 177.678 76.4802ZM180.866 78.7316C181.034 78.8545 181.229 78.9368 181.436 78.9716C181.659 79.0184 181.891 79.0046 182.107 78.9316C182.284 78.8795 182.45 78.7984 182.598 78.6916C182.713 78.5975 182.807 78.4818 182.875 78.3516C182.932 78.2199 182.958 78.0773 182.951 77.9345C182.949 77.7804 182.93 77.627 182.892 77.4773L182.716 76.9373H182.695C182.636 77.148 182.522 77.3401 182.363 77.4945C182.198 77.6442 182.004 77.7599 181.792 77.8345C181.589 77.8989 181.376 77.926 181.163 77.9145C180.971 77.8918 180.784 77.8377 180.61 77.7545C180.258 77.5433 180.005 77.2071 179.904 76.8173C179.845 76.6237 179.825 76.4211 179.845 76.2202C179.867 76.0277 179.92 75.8397 180.001 75.663C180.09 75.4862 180.218 75.3302 180.375 75.2059C180.538 75.0644 180.734 74.9617 180.945 74.9059C181.154 74.8423 181.376 74.8285 181.592 74.8659C181.811 74.9094 182.016 75.0057 182.186 75.1459H182.204L182.069 74.6459L182.48 74.5259L183.307 77.3545C183.345 77.5145 183.386 77.6745 183.386 77.8745C183.392 78.0648 183.358 78.2542 183.286 78.4316C183.207 78.6207 183.086 78.7911 182.933 78.9316C182.722 79.1075 182.473 79.2362 182.204 79.3088C181.948 79.3888 181.675 79.4088 181.419 79.3888C181.162 79.3542 180.915 79.2727 180.689 79.1488L180.866 78.7316ZM180.336 76.6602C180.418 76.9435 180.599 77.1901 180.848 77.3573C180.966 77.4373 181.104 77.4745 181.26 77.4945C181.419 77.5145 181.575 77.4945 181.73 77.4573C181.884 77.4162 182.026 77.3409 182.145 77.2373C182.264 77.1473 182.359 77.0307 182.422 76.8973C182.48 76.7573 182.539 76.6402 182.539 76.4802C182.559 76.3179 182.539 76.1534 182.48 76.0002C182.44 75.8533 182.366 75.7174 182.263 75.603C182.177 75.4848 182.063 75.3886 181.93 75.323C181.807 75.2457 181.665 75.1987 181.519 75.1859C181.201 75.1595 180.884 75.2514 180.633 75.443C180.523 75.5382 180.434 75.6547 180.373 75.7851C180.312 75.9155 180.279 76.0569 180.278 76.2002C180.278 76.3602 180.295 76.523 180.336 76.6602ZM185.61 74.9059C185.551 74.6488 185.451 74.4859 185.295 74.3859C185.139 74.2888 184.942 74.2688 184.686 74.3288C184.516 74.3624 184.355 74.4306 184.213 74.5288C184.087 74.6185 183.974 74.7242 183.878 74.843L183.583 74.6059C183.706 74.4332 183.864 74.2861 184.046 74.1733C184.228 74.0604 184.432 73.9841 184.645 73.9488C184.931 73.8858 185.23 73.9211 185.492 74.0488C185.61 74.1059 185.71 74.2088 185.807 74.3288C185.892 74.4702 185.952 74.6248 185.983 74.7859L186.239 76.0602C186.26 76.1802 186.298 76.2802 186.319 76.4002C186.357 76.5202 186.378 76.6202 186.416 76.6973L186.042 76.7773C186.022 76.7202 185.983 76.6402 185.963 76.5602L185.904 76.3202H185.886C185.807 76.5147 185.687 76.6909 185.533 76.8373C185.363 76.9616 185.168 77.0493 184.96 77.0945C184.842 77.1173 184.725 77.1373 184.607 77.1173C184.486 77.1098 184.366 77.0828 184.254 77.0373C184.139 76.9871 184.037 76.9118 183.957 76.8173C183.871 76.697 183.811 76.5609 183.78 76.4173C183.739 76.2246 183.759 76.024 183.839 75.843C183.927 75.6801 184.065 75.5474 184.233 75.463C184.431 75.3506 184.642 75.2641 184.863 75.2059C185.098 75.143 185.354 75.063 185.61 75.0259V74.9059ZM185.572 75.363L185.06 75.483C184.883 75.543 184.725 75.603 184.607 75.663C184.486 75.728 184.379 75.8154 184.292 75.9202C184.254 75.9716 184.227 76.0301 184.214 76.0921C184.2 76.1541 184.2 76.2181 184.213 76.2802C184.233 76.3802 184.272 76.4602 184.33 76.5373C184.389 76.6002 184.448 76.6402 184.528 76.6802C184.607 76.7173 184.686 76.7173 184.763 76.7173C184.842 76.7173 184.922 76.7173 185.019 76.6973C185.154 76.6729 185.281 76.6192 185.392 76.5402C185.498 76.4668 185.586 76.3711 185.648 76.2602C185.772 76.0417 185.808 75.7858 185.748 75.543L185.71 75.323L185.572 75.363ZM187.304 73.5488L187.363 73.8059C187.38 73.9088 187.38 73.9888 187.401 74.0488H187.419C187.485 73.8583 187.608 73.6913 187.772 73.5688C187.94 73.445 188.137 73.3635 188.345 73.3316C188.719 73.2916 189.013 73.3688 189.21 73.5688C189.428 73.7688 189.545 74.0488 189.583 74.4259L189.801 76.2402L189.369 76.2973L189.172 74.6659C189.159 74.5238 189.132 74.3832 189.092 74.2459C189.052 74.1349 189 74.0286 188.936 73.9288C188.861 73.847 188.766 73.785 188.66 73.7488C188.56 73.7088 188.425 73.7088 188.266 73.7088C188.15 73.7186 188.038 73.7545 187.939 73.8135C187.84 73.8725 187.757 73.953 187.695 74.0488C187.616 74.1459 187.578 74.2859 187.539 74.4259C187.502 74.5959 187.495 74.7708 187.519 74.943L187.695 76.4573L187.263 76.5173L186.986 74.2059C186.986 74.1259 186.969 74.0288 186.948 73.8888L186.889 73.5488H187.304ZM190.98 72.0573C190.984 72.137 190.956 72.2149 190.901 72.2745C190.842 72.3316 190.783 72.3745 190.707 72.3745C190.627 72.3752 190.549 72.3467 190.489 72.2945C190.457 72.2668 190.432 72.2329 190.415 72.195C190.398 72.157 190.389 72.1159 190.389 72.0745C190.389 71.9945 190.41 71.9145 190.469 71.8573C190.528 71.7973 190.586 71.7573 190.666 71.7573C190.746 71.7569 190.824 71.7854 190.883 71.8373C190.944 71.8947 190.979 71.9754 190.98 72.0573ZM191.139 76.2002L190.704 76.2202L190.548 73.2316L190.98 73.2116L191.139 76.2002ZM194.03 73.4516L192.298 75.783L194.13 75.743V76.1202L191.728 76.1602V75.8602L193.439 73.5116L191.769 73.5316V73.1716L194.013 73.1316L194.03 73.4516ZM196.766 74.3659C196.796 74.1547 196.74 73.9404 196.61 73.7688C196.492 73.6288 196.295 73.5488 196.039 73.5288C195.873 73.5081 195.704 73.5287 195.548 73.5888C195.402 73.6337 195.268 73.7087 195.154 73.8088L194.936 73.5088C195.075 73.3888 195.23 73.3088 195.428 73.2316C195.651 73.1622 195.885 73.135 196.119 73.1516C196.275 73.1716 196.433 73.1916 196.551 73.2516C196.678 73.308 196.797 73.381 196.904 73.4688C197.004 73.5688 197.08 73.6888 197.122 73.8288C197.18 73.9688 197.18 74.1259 197.18 74.3059L197.08 75.603C197.08 75.7202 197.063 75.8402 197.063 75.9602C197.063 76.0802 197.063 76.1802 197.08 76.2802L196.707 76.2602C196.707 76.1802 196.689 76.1002 196.689 76.0202V75.763H196.669C196.542 75.9335 196.373 76.0701 196.178 76.1602C196.001 76.2402 195.804 76.2602 195.548 76.2402C195.427 76.2327 195.307 76.2056 195.195 76.1602C195.079 76.1201 194.971 76.059 194.878 75.9802C194.778 75.9021 194.703 75.798 194.663 75.6802C194.603 75.5495 194.582 75.4047 194.604 75.263C194.622 75.023 194.68 74.863 194.819 74.7259C194.95 74.5915 195.122 74.5014 195.31 74.4688C195.528 74.4081 195.754 74.3802 195.98 74.3859C196.236 74.3859 196.492 74.3859 196.766 74.4059V74.3659ZM196.61 74.7859C196.433 74.7659 196.257 74.7659 196.08 74.7659C195.914 74.7639 195.748 74.7831 195.586 74.823C195.454 74.857 195.328 74.911 195.213 74.983C195.162 75.0206 195.122 75.0691 195.094 75.1247C195.067 75.1803 195.053 75.2414 195.054 75.303C195.054 75.403 195.054 75.503 195.095 75.583C195.133 75.6602 195.172 75.7202 195.251 75.7602C195.31 75.8002 195.389 75.8402 195.469 75.8802C195.549 75.9143 195.637 75.928 195.725 75.9202C195.88 75.9402 196.019 75.9202 196.136 75.863C196.254 75.8202 196.354 75.7402 196.451 75.663C196.539 75.5789 196.607 75.4763 196.648 75.363C196.705 75.2442 196.732 75.114 196.728 74.983L196.748 74.7659L196.61 74.7859ZM199.66 74.0288L198.833 73.9088L198.598 75.643C198.579 75.7345 198.579 75.8288 198.598 75.9202C198.612 75.9819 198.632 76.0421 198.657 76.1002C198.694 76.144 198.741 76.1784 198.795 76.2002C198.854 76.2202 198.913 76.2402 198.972 76.2402H199.169C199.228 76.2402 199.304 76.2202 199.366 76.2002L199.325 76.5773C199.245 76.5973 199.169 76.6173 199.089 76.6173C199.01 76.6173 198.913 76.6173 198.813 76.5973L198.578 76.5402C198.49 76.5007 198.41 76.4465 198.342 76.3802C198.273 76.3038 198.219 76.2156 198.183 76.1202C198.145 75.9901 198.138 75.8533 198.163 75.7202L198.398 73.8688L197.789 73.7888L197.83 73.4288L198.439 73.5088L198.557 72.6716L198.992 72.7316L198.875 73.5688L199.698 73.6888L199.66 74.0288ZM200.31 76.8002L199.898 76.7173L200.41 73.7688L200.822 73.8488L200.31 76.8002ZM201.098 72.7545C201.078 72.8345 201.039 72.9116 200.96 72.9545C200.88 72.9916 200.822 73.0116 200.742 72.9916C200.666 72.971 200.598 72.9293 200.545 72.8716C200.486 72.8145 200.466 72.7345 200.486 72.6345C200.507 72.5545 200.545 72.4745 200.625 72.4345C200.704 72.3945 200.763 72.3773 200.842 72.3945C200.918 72.4148 200.985 72.4566 201.036 72.5145C201.095 72.5716 201.119 72.6545 201.098 72.7545ZM204.422 76.2202C204.373 76.4261 204.286 76.6217 204.166 76.7973C204.053 76.9591 203.905 77.0955 203.733 77.1973C203.557 77.296 203.364 77.3637 203.163 77.3973C202.947 77.4328 202.725 77.4191 202.516 77.3573C202.305 77.3033 202.105 77.2155 201.925 77.0973C201.761 76.9763 201.621 76.8283 201.51 76.6602C201.406 76.4882 201.339 76.2978 201.313 76.1002C201.277 75.8877 201.29 75.6701 201.351 75.463C201.4 75.2572 201.486 75.0616 201.607 74.8859C201.721 74.7237 201.869 74.5872 202.042 74.4859C202.219 74.3872 202.412 74.3195 202.613 74.2859C203.05 74.2346 203.49 74.3414 203.851 74.5859C204.028 74.7059 204.145 74.8659 204.263 75.0259C204.363 75.203 204.439 75.383 204.463 75.583C204.498 75.7958 204.484 76.0134 204.422 76.2202ZM203.989 76.1002C204.069 75.8011 204.041 75.4846 203.91 75.203C203.843 75.0742 203.75 74.9596 203.636 74.8659C203.511 74.7643 203.361 74.6955 203.201 74.6659C203.047 74.6305 202.887 74.6237 202.73 74.6459C202.587 74.666 202.452 74.7211 202.336 74.8059C202.207 74.8941 202.097 75.0065 202.012 75.1365C201.928 75.2665 201.871 75.4115 201.845 75.563C201.804 75.723 201.786 75.883 201.804 76.0402C201.825 76.2002 201.863 76.3402 201.922 76.4602C201.98 76.5802 202.08 76.6973 202.198 76.7973C202.316 76.8973 202.454 76.9573 202.63 76.9973C202.807 77.0373 202.966 77.0373 203.101 77.0173C203.245 76.9976 203.382 76.9425 203.498 76.8573C203.622 76.7716 203.729 76.664 203.813 76.5402C203.896 76.4036 203.955 76.2551 203.989 76.1002ZM206.075 75.183L206.016 75.443C205.995 75.543 205.957 75.623 205.936 75.683H205.957C206.1 75.5437 206.286 75.4526 206.486 75.423C206.69 75.3857 206.901 75.3995 207.098 75.463C207.451 75.583 207.686 75.783 207.786 76.063C207.888 76.3677 207.882 76.6965 207.769 76.9973L207.178 78.7316L206.766 78.5888L207.295 77.0373C207.354 76.8973 207.375 76.7573 207.395 76.6173C207.417 76.4984 207.41 76.376 207.375 76.2602C207.35 76.1541 207.295 76.0569 207.216 75.9802C207.118 75.8939 207.004 75.826 206.88 75.7802C206.775 75.7378 206.66 75.7249 206.548 75.743C206.429 75.7449 206.313 75.7785 206.213 75.8402C206.089 75.9113 205.982 76.0067 205.898 76.1202C205.792 76.2577 205.713 76.4125 205.663 76.5773L205.169 78.0345L204.757 77.8916L205.504 75.683C205.525 75.603 205.563 75.503 205.604 75.383C205.642 75.263 205.663 75.143 205.701 75.0459L206.075 75.183ZM213.198 80.783C212.942 80.9307 212.649 81.0069 212.351 81.003C212.185 81.0027 212.02 80.9826 211.86 80.943C211.359 80.8124 210.912 80.5339 210.58 80.1459C210.384 79.918 210.236 79.6536 210.148 79.3688C210.048 79.0888 210.03 78.7916 210.048 78.4716C210.076 78.1445 210.17 77.826 210.325 77.5345C210.469 77.2479 210.669 76.9909 210.913 76.7773C211.134 76.5785 211.395 76.4277 211.681 76.335C211.967 76.2424 212.269 76.2101 212.569 76.2402C212.889 76.2695 213.2 76.3604 213.484 76.5075C213.768 76.6547 214.018 76.8552 214.222 77.0973C214.411 77.3198 214.533 77.5887 214.575 77.8745L214.104 77.9545C214.104 77.8745 214.063 77.7745 214.045 77.6745C213.908 77.3277 213.65 77.0386 213.316 76.8573C213.081 76.7303 212.82 76.6551 212.551 76.6373C212.307 76.6148 212.061 76.6562 211.839 76.7573C211.609 76.8459 211.401 76.9825 211.23 77.1573C211.046 77.3381 210.893 77.5465 210.778 77.7745C210.657 78.0045 210.584 78.2547 210.56 78.5116C210.524 78.7576 210.538 79.008 210.601 79.2488C210.67 79.493 210.79 79.7212 210.952 79.9196C211.114 80.1179 211.316 80.2824 211.545 80.403C211.771 80.5174 212.018 80.5855 212.272 80.603C212.534 80.6126 212.794 80.5502 213.022 80.423L213.198 80.783ZM216.622 82.1373C216.517 82.3102 216.378 82.4609 216.212 82.5807C216.046 82.7004 215.858 82.7867 215.657 82.8345C215.463 82.874 215.263 82.874 215.069 82.8345C214.854 82.795 214.651 82.7069 214.478 82.5773C214.293 82.4615 214.133 82.3121 214.007 82.1373C213.776 81.7973 213.691 81.3833 213.769 80.983C213.807 80.783 213.886 80.583 214.004 80.383C214.221 80.0389 214.567 79.7892 214.969 79.6859C215.164 79.646 215.365 79.646 215.56 79.6859C215.769 79.7316 215.968 79.8128 216.148 79.9259C216.419 80.0955 216.63 80.34 216.756 80.6278C216.882 80.9156 216.916 81.2334 216.854 81.5402C216.811 81.7504 216.733 81.9522 216.622 82.1373ZM216.248 81.8802C216.344 81.75 216.404 81.5988 216.425 81.4402C216.496 81.1479 216.447 80.84 216.286 80.583C216.202 80.4485 216.089 80.3334 215.954 80.2459C215.832 80.1557 215.69 80.0943 215.54 80.0665C215.389 80.0387 215.234 80.0454 215.086 80.0859C214.942 80.1242 214.807 80.1924 214.692 80.2859C214.567 80.3863 214.46 80.5071 214.378 80.643C214.282 80.7723 214.222 80.9225 214.201 81.0802C214.166 81.2244 214.16 81.3738 214.183 81.5202C214.205 81.6628 214.258 81.7993 214.339 81.9202C214.43 82.0508 214.543 82.1649 214.675 82.2573C214.796 82.3469 214.938 82.4079 215.088 82.4357C215.238 82.4634 215.392 82.4572 215.539 82.4173C215.832 82.3242 216.085 82.1341 216.248 81.8802ZM218.51 81.7002L218.354 81.9202C218.305 81.9848 218.259 82.0516 218.216 82.1202H218.236C218.413 82.0402 218.61 82.0002 218.825 82.0402C219.032 82.0738 219.229 82.1551 219.398 82.2773C219.692 82.5173 219.851 82.7773 219.851 83.0773C219.854 83.3959 219.741 83.7052 219.533 83.9516L218.416 85.3859L218.078 85.1288L219.08 83.8316C219.172 83.7215 219.251 83.6017 219.316 83.4745C219.374 83.3694 219.408 83.2534 219.416 83.1345C219.417 83.0261 219.397 82.9185 219.357 82.8173C219.29 82.7039 219.203 82.6024 219.101 82.5173C219.012 82.4492 218.913 82.3952 218.807 82.3573C218.693 82.3213 218.571 82.3144 218.454 82.3373C218.148 82.4146 217.882 82.5987 217.707 82.8545L216.78 84.0716L216.445 83.8145L217.863 81.9802C217.901 81.9202 217.98 81.8373 218.039 81.7202C218.119 81.6202 218.178 81.5202 218.236 81.4402L218.513 81.7002H218.51ZM221.819 84.9859L221.21 84.4288L220.069 85.723C219.989 85.803 219.951 85.883 219.91 85.943C219.872 86.003 219.872 86.083 219.872 86.123C219.872 86.1802 219.889 86.243 219.93 86.283C219.969 86.323 220.01 86.383 220.048 86.423C220.092 86.4661 220.145 86.4992 220.204 86.5202C220.263 86.5602 220.322 86.5802 220.38 86.6002L220.145 86.9002C220.064 86.8799 219.989 86.8384 219.93 86.7802C219.851 86.7402 219.792 86.6802 219.713 86.6202C219.649 86.563 219.596 86.4953 219.557 86.4202C219.504 86.3431 219.469 86.2551 219.457 86.163C219.443 86.0627 219.45 85.9607 219.478 85.863C219.524 85.7375 219.598 85.6228 219.692 85.5259L220.913 84.1316L220.46 83.7116L220.695 83.4316L221.148 83.8516L221.701 83.2345L222.016 83.5316L221.466 84.1516L222.075 84.7088L221.819 84.9859ZM222.351 85.4659C222.423 85.3746 222.501 85.2886 222.586 85.2088L222.863 85.5059C222.804 85.563 222.763 85.6459 222.686 85.7059C222.638 85.7687 222.585 85.8279 222.528 85.883C222.71 85.8197 222.908 85.8059 223.098 85.843C223.299 85.8833 223.48 85.9892 223.61 86.143C223.648 86.1781 223.681 86.2186 223.707 86.263C223.728 86.303 223.766 86.343 223.786 86.383L223.451 86.6402C223.433 86.6202 223.413 86.583 223.375 86.5402C223.333 86.5002 223.295 86.443 223.257 86.403C223.178 86.324 223.082 86.2618 222.977 86.2204C222.872 86.1791 222.759 86.1596 222.645 86.163C222.528 86.163 222.41 86.203 222.272 86.283C222.116 86.3635 221.976 86.471 221.86 86.6002L220.795 87.6773L220.501 87.3773L222.116 85.723C222.192 85.6459 222.251 85.5659 222.351 85.4659ZM224.986 90.0688C224.825 90.207 224.639 90.3146 224.436 90.3859C224.247 90.4498 224.047 90.4756 223.847 90.4619C223.647 90.4481 223.453 90.3951 223.275 90.3059C222.887 90.0838 222.588 89.7403 222.428 89.3316C222.3 88.9436 222.329 88.5231 222.507 88.1545C222.703 87.7748 223.04 87.4824 223.451 87.3373C223.64 87.2733 223.841 87.2473 224.04 87.2611C224.24 87.2749 224.435 87.328 224.613 87.4173C224.994 87.6334 225.287 87.9718 225.439 88.3745C225.567 88.7612 225.54 89.1808 225.363 89.5488C225.295 89.7552 225.163 89.9365 224.986 90.0688ZM224.692 89.7288C224.933 89.5327 225.088 89.2547 225.125 88.9516C225.141 88.798 225.124 88.6429 225.077 88.4956C225.029 88.3482 224.951 88.2118 224.848 88.0945C224.744 87.9737 224.617 87.873 224.475 87.7973C224.343 87.7359 224.2 87.7023 224.055 87.6988C223.909 87.6954 223.765 87.7221 223.63 87.7773C223.488 87.8373 223.355 87.9172 223.236 88.0145C223.122 88.1208 223.023 88.2419 222.942 88.3745C222.831 88.5759 222.785 88.805 222.81 89.0323C222.834 89.2595 222.929 89.4743 223.08 89.6488C223.173 89.7673 223.292 89.8646 223.427 89.9338C223.563 90.0029 223.713 90.0422 223.866 90.0488C224.004 90.0488 224.16 90.0288 224.298 89.9688C224.441 89.9079 224.574 89.827 224.692 89.7288ZM224.575 92.0202L224.319 91.683L228.095 88.7516L228.351 89.0916L224.575 92.0202ZM226.345 94.5716L226.11 94.1716L229.928 91.8202L230.616 92.9573C230.733 93.1345 230.813 93.3345 230.872 93.5145C230.924 93.682 230.95 93.8565 230.948 94.0316C230.948 94.1916 230.889 94.3516 230.792 94.5116C230.681 94.667 230.541 94.8016 230.38 94.9088C230.253 94.9882 230.111 95.0416 229.962 95.0657C229.812 95.0897 229.66 95.084 229.513 95.0488C229.373 95.0091 229.24 94.9484 229.119 94.8688C228.987 94.7764 228.874 94.6623 228.783 94.5316L227.642 96.783L227.348 96.303L228.489 94.1316L228.095 93.4745L226.345 94.5688V94.5716ZM228.469 93.2745L228.88 93.9516C229.018 94.2112 229.23 94.4259 229.492 94.5688C229.71 94.6688 229.928 94.6488 230.163 94.5116C230.272 94.4454 230.366 94.3566 230.436 94.2516C230.491 94.1522 230.525 94.0435 230.536 93.9316C230.535 93.8039 230.515 93.677 230.478 93.5545C230.428 93.4077 230.362 93.2667 230.28 93.1345L229.869 92.4373L228.469 93.2745ZM230.498 98.9716C230.478 98.9945 230.439 98.9945 230.419 99.0145C230.378 99.0345 230.36 99.0345 230.319 99.0545L229.236 96.843C229.114 96.9131 229.002 96.9996 228.904 97.1002C228.808 97.2018 228.74 97.3258 228.707 97.4602C228.667 97.5958 228.647 97.7363 228.648 97.8773C228.648 98.0202 228.686 98.1573 228.766 98.2973C228.863 98.4973 229.001 98.6545 229.16 98.7545C229.308 98.8485 229.476 98.91 229.651 98.9345L229.572 99.3345C229.326 99.2863 229.096 99.1814 228.901 99.0288C228.706 98.8761 228.552 98.6801 228.451 98.4573C228.352 98.2715 228.298 98.0664 228.292 97.8573C228.278 97.6617 228.305 97.4654 228.372 97.2802C228.434 97.0909 228.534 96.9152 228.666 96.763C228.805 96.6007 228.98 96.4708 229.178 96.383C229.367 96.2844 229.575 96.2232 229.789 96.203C229.982 96.1823 230.177 96.2027 230.36 96.263C230.549 96.327 230.722 96.427 230.871 96.557C231.019 96.687 231.14 96.8445 231.225 97.0202C231.4 97.3753 231.429 97.7824 231.304 98.1573C231.24 98.328 231.14 98.4837 231.01 98.6145C230.855 98.7537 230.683 98.8745 230.498 98.9745V98.9716ZM230.419 98.5145C230.647 98.3937 230.822 98.1954 230.91 97.9573C231.01 97.7173 230.969 97.4602 230.851 97.2002C230.801 97.0718 230.712 96.9612 230.595 96.883C230.496 96.7979 230.383 96.7302 230.26 96.683C230.14 96.6437 230.013 96.6235 229.886 96.623C229.757 96.6206 229.629 96.6481 229.513 96.703L230.419 98.5145ZM228.116 101.286L227.957 100.886L232.13 99.2716L232.286 99.6716L231.816 99.8516V99.8716C232.037 99.9138 232.241 100.017 232.404 100.169C232.563 100.329 232.698 100.509 232.757 100.709C232.883 100.994 232.915 101.31 232.848 101.614C232.781 101.917 232.619 102.193 232.383 102.403C232.068 102.673 231.666 102.828 231.245 102.84C231.047 102.842 230.851 102.803 230.671 102.724C230.491 102.645 230.33 102.528 230.201 102.383C230.05 102.221 229.936 102.03 229.866 101.823C229.791 101.619 229.763 101.401 229.786 101.186C229.808 100.966 229.882 100.755 230.004 100.569V100.549L228.116 101.286ZM231.695 102.283C231.847 102.227 231.987 102.146 232.11 102.043C232.224 101.949 232.318 101.833 232.386 101.703C232.446 101.57 232.486 101.43 232.504 101.286C232.507 101.123 232.48 100.96 232.425 100.806C232.348 100.593 232.204 100.41 232.013 100.281C231.822 100.153 231.595 100.087 231.363 100.092C231.2 100.086 231.038 100.119 230.892 100.189C230.736 100.244 230.594 100.333 230.478 100.449C230.364 100.546 230.276 100.669 230.222 100.806C230.158 100.944 230.124 101.094 230.122 101.246C230.115 101.569 230.235 101.882 230.457 102.123C230.554 102.223 230.692 102.303 230.81 102.36C230.946 102.421 231.097 102.442 231.245 102.42C231.38 102.363 231.539 102.343 231.695 102.283ZM232.898 106.429C232.68 106.486 232.463 106.506 232.266 106.486C232.071 106.468 231.882 106.407 231.716 106.306C231.542 106.201 231.389 106.066 231.263 105.909C231.132 105.728 231.039 105.524 230.989 105.309C230.931 105.102 230.911 104.888 230.93 104.674C230.946 104.472 231.005 104.276 231.103 104.097C231.201 103.919 231.337 103.762 231.501 103.637C231.841 103.378 232.271 103.258 232.701 103.3C232.896 103.317 233.084 103.378 233.251 103.477C233.428 103.577 233.566 103.717 233.704 103.877C233.839 104.047 233.934 104.245 233.98 104.454C234.039 104.674 234.057 104.892 234.039 105.112C234.023 105.314 233.963 105.511 233.863 105.689C233.766 105.866 233.632 106.022 233.469 106.146C233.299 106.274 233.105 106.372 232.898 106.429ZM232.78 105.989C232.934 105.942 233.079 105.875 233.213 105.789C233.33 105.689 233.448 105.589 233.507 105.472C233.584 105.341 233.637 105.199 233.666 105.052C233.691 104.892 233.677 104.728 233.625 104.574C233.59 104.419 233.515 104.274 233.407 104.154C233.311 104.047 233.199 103.953 233.075 103.877C232.937 103.817 232.792 103.776 232.642 103.757C232.484 103.741 232.324 103.755 232.172 103.797C232.017 103.843 231.871 103.911 231.736 103.997C231.618 104.083 231.518 104.191 231.442 104.314C231.366 104.444 231.312 104.585 231.283 104.732C231.257 104.892 231.27 105.057 231.322 105.212C231.363 105.372 231.439 105.529 231.539 105.649C231.63 105.763 231.744 105.858 231.875 105.929C232.012 105.99 232.157 106.03 232.307 106.049C232.466 106.048 232.624 106.028 232.778 105.989H232.78ZM234.178 107.003C234.295 106.983 234.413 106.946 234.51 106.923L234.589 107.323C234.502 107.343 234.417 107.37 234.333 107.403C234.254 107.418 234.175 107.437 234.098 107.46V107.483C234.291 107.528 234.463 107.632 234.589 107.78C234.735 107.929 234.831 108.117 234.866 108.32C234.881 108.364 234.888 108.411 234.886 108.457V108.6L234.475 108.617V108.477C234.475 108.42 234.451 108.357 234.451 108.3C234.433 108.187 234.393 108.079 234.333 107.98C234.275 107.877 234.186 107.794 234.078 107.74C233.962 107.677 233.835 107.636 233.704 107.62C233.534 107.598 233.36 107.604 233.192 107.64L231.716 107.94L231.639 107.523L233.904 107.066C233.963 107.066 234.06 107.043 234.178 107.003ZM234.807 110.972L234.689 110.132L232.978 110.372C232.891 110.385 232.805 110.405 232.722 110.432C232.663 110.472 232.604 110.489 232.563 110.552C232.523 110.596 232.502 110.653 232.504 110.712V110.889C232.506 110.953 232.526 111.015 232.563 111.069C232.583 111.129 232.622 111.189 232.663 111.249L232.286 111.329C232.248 111.249 232.21 111.189 232.189 111.109L232.13 110.852C232.111 110.766 232.111 110.677 232.13 110.592C232.134 110.501 232.162 110.412 232.21 110.334C232.259 110.242 232.333 110.165 232.425 110.112C232.54 110.046 232.668 110.006 232.801 109.994L234.63 109.734L234.551 109.117L234.904 109.057L234.983 109.674L235.81 109.554L235.869 109.994L235.045 110.112L235.163 110.949L234.807 110.972ZM234.689 113.457C234.811 113.381 234.908 113.272 234.966 113.143C235.034 112.999 235.062 112.841 235.045 112.683C235.043 112.608 235.029 112.534 235.004 112.463C234.986 112.383 234.945 112.323 234.907 112.263C234.864 112.206 234.81 112.159 234.748 112.123C234.689 112.083 234.61 112.083 234.533 112.083C234.395 112.103 234.298 112.163 234.239 112.283C234.157 112.459 234.109 112.648 234.098 112.84C234.078 113.122 233.99 113.396 233.842 113.64C233.785 113.727 233.707 113.8 233.615 113.852C233.523 113.903 233.419 113.933 233.313 113.937C233.166 113.962 233.015 113.942 232.88 113.88C232.765 113.821 232.665 113.739 232.586 113.637C232.508 113.535 232.449 113.421 232.41 113.3C232.373 113.169 232.345 113.035 232.328 112.9C232.315 112.678 232.342 112.456 232.407 112.243C232.488 112.028 232.624 111.837 232.801 111.686L233.075 112.006C232.946 112.098 232.845 112.221 232.78 112.363C232.7 112.516 232.666 112.689 232.683 112.86C232.683 112.96 232.701 113.04 232.722 113.12C232.742 113.2 232.78 113.28 232.822 113.34C232.867 113.401 232.927 113.45 232.998 113.48C233.075 113.52 233.154 113.52 233.254 113.52C233.41 113.5 233.51 113.42 233.586 113.26C233.645 113.1 233.704 112.88 233.745 112.583L233.804 112.283C233.823 112.184 233.863 112.089 233.922 112.006C233.978 111.919 234.052 111.844 234.139 111.786C234.239 111.719 234.354 111.678 234.475 111.666C234.608 111.643 234.745 111.663 234.866 111.723C234.983 111.786 235.063 111.846 235.142 111.946C235.3 112.155 235.389 112.404 235.398 112.663C235.414 112.873 235.381 113.084 235.301 113.28C235.231 113.468 235.109 113.633 234.948 113.757L234.689 113.457Z" fill="url(#paint2_linear_2291_16694)"/>
</g>
<path d="M177.06 154.52C177.154 154.328 177.175 154.109 177.119 153.903C177.06 153.723 176.901 153.583 176.666 153.483C176.514 153.403 176.344 153.362 176.172 153.363C176.019 153.362 175.868 153.382 175.722 153.423L175.622 153.066C175.805 153.006 175.999 152.979 176.192 152.986C176.424 153.011 176.651 153.072 176.863 153.166C177.132 153.296 177.353 153.506 177.492 153.766C177.551 153.88 177.572 154.023 177.572 154.18C177.566 154.346 177.526 154.509 177.454 154.66L176.901 155.834C176.863 155.934 176.804 156.054 176.763 156.174C176.725 156.292 176.683 156.392 176.666 156.472L176.313 156.314C176.329 156.238 176.355 156.165 176.389 156.094C176.414 156.011 176.447 155.931 176.489 155.854H176.469C176.29 155.962 176.089 156.03 175.88 156.054C175.668 156.053 175.459 156.004 175.269 155.912C175.16 155.863 175.06 155.796 174.975 155.714C174.879 155.636 174.799 155.542 174.736 155.437C174.672 155.317 174.638 155.184 174.638 155.049C174.638 154.913 174.672 154.78 174.736 154.66C174.836 154.46 174.954 154.3 175.13 154.24C175.302 154.161 175.493 154.133 175.68 154.16C175.878 154.18 176.092 154.24 176.33 154.34L177.036 154.64L177.06 154.52ZM176.766 154.877C176.461 154.727 176.135 154.62 175.798 154.56C175.661 154.537 175.52 154.544 175.386 154.58C175.326 154.6 175.271 154.631 175.223 154.671C175.176 154.712 175.137 154.762 175.11 154.817C175.074 154.9 175.054 154.988 175.051 155.077C175.056 155.156 175.084 155.232 175.13 155.297C175.171 155.366 175.224 155.427 175.286 155.477C175.456 155.621 175.67 155.705 175.895 155.717C176.017 155.719 176.138 155.698 176.251 155.654C176.364 155.611 176.464 155.542 176.545 155.454C176.634 155.36 176.707 155.253 176.763 155.137L176.863 154.937L176.763 154.88L176.766 154.877ZM178.101 157.069L177.707 156.909L178.81 154.137L179.204 154.3L178.101 157.069ZM179.716 153.263C179.675 153.343 179.616 153.403 179.539 153.423C179.46 153.443 179.38 153.463 179.322 153.423C179.242 153.403 179.204 153.343 179.163 153.263C179.143 153.226 179.133 153.185 179.133 153.143C179.133 153.101 179.143 153.06 179.163 153.023C179.204 152.946 179.263 152.886 179.339 152.866C179.419 152.846 179.498 152.826 179.557 152.866C179.636 152.886 179.675 152.943 179.716 153.023C179.736 153.102 179.736 153.184 179.716 153.263ZM181.978 156.014C181.943 155.869 181.871 155.734 181.768 155.622C181.665 155.511 181.535 155.427 181.389 155.377C181.23 155.317 181.072 155.297 180.916 155.317C180.766 155.327 180.621 155.369 180.492 155.442C180.362 155.515 180.251 155.616 180.169 155.737C180.065 155.859 179.991 156.001 179.951 156.154C179.896 156.308 179.869 156.469 179.872 156.632C179.872 156.792 179.91 156.932 179.969 157.069C180.028 157.212 180.107 157.329 180.225 157.429C180.342 157.529 180.48 157.609 180.636 157.669C180.816 157.726 180.975 157.746 181.13 157.726C181.272 157.703 181.407 157.649 181.525 157.569L181.76 157.906C181.593 158.01 181.406 158.078 181.21 158.106C180.983 158.126 180.754 158.099 180.539 158.026C180.335 157.962 180.146 157.858 179.984 157.721C179.823 157.584 179.691 157.417 179.598 157.229C179.513 157.047 179.466 156.851 179.46 156.652C179.445 156.435 179.478 156.218 179.557 156.014C179.625 155.811 179.732 155.623 179.872 155.457C179.992 155.305 180.147 155.182 180.325 155.097C180.511 155.001 180.717 154.946 180.928 154.935C181.139 154.925 181.35 154.96 181.545 155.037C181.741 155.11 181.921 155.218 182.075 155.357C182.232 155.501 182.353 155.678 182.428 155.874L181.978 156.014ZM182.548 160.177L182.136 160.077L183.195 155.694L183.61 155.794L183.492 156.292H183.513C183.67 156.138 183.867 156.029 184.083 155.974C184.291 155.935 184.505 155.935 184.713 155.974C184.922 156.028 185.121 156.115 185.301 156.232C185.459 156.354 185.593 156.503 185.695 156.672C185.795 156.843 185.855 157.033 185.872 157.229C185.924 157.654 185.82 158.084 185.578 158.443C185.461 158.601 185.323 158.743 185.166 158.863C185.001 158.973 184.811 159.042 184.613 159.063C184.403 159.099 184.187 159.085 183.983 159.023C183.772 158.967 183.577 158.864 183.413 158.723C183.238 158.582 183.109 158.396 183.039 158.186H183.019L182.548 160.177ZM185.401 157.766C185.48 157.467 185.452 157.15 185.322 156.869C185.254 156.74 185.161 156.625 185.048 156.532C184.92 156.439 184.773 156.371 184.618 156.334C184.462 156.296 184.301 156.288 184.142 156.312C183.994 156.332 183.853 156.387 183.73 156.472C183.6 156.553 183.491 156.662 183.413 156.792C183.316 156.922 183.249 157.071 183.216 157.229C183.171 157.384 183.165 157.548 183.198 157.706C183.236 157.866 183.257 158.006 183.336 158.126C183.413 158.246 183.513 158.366 183.63 158.463C183.748 158.563 183.886 158.623 184.042 158.663C184.196 158.709 184.359 158.716 184.516 158.683C184.659 158.663 184.795 158.608 184.91 158.523C185.033 158.442 185.133 158.333 185.204 158.206C185.298 158.073 185.365 157.923 185.401 157.766ZM188.766 157.906C188.807 157.649 188.766 157.449 188.648 157.309C188.507 157.152 188.311 157.052 188.098 157.029C187.935 157.005 187.768 157.012 187.607 157.049C187.455 157.083 187.314 157.152 187.195 157.249L186.995 156.932C187.152 156.82 187.333 156.745 187.525 156.712C187.752 156.664 187.986 156.657 188.216 156.692C188.375 156.712 188.51 156.749 188.648 156.832C188.786 156.889 188.883 156.992 188.983 157.089C189.084 157.195 189.152 157.327 189.18 157.469C189.218 157.625 189.225 157.787 189.201 157.946L189.004 159.243C188.98 159.361 188.966 159.48 188.963 159.6C188.943 159.706 188.943 159.814 188.963 159.92L188.589 159.86V159.62C188.589 159.54 188.61 159.46 188.61 159.38H188.589C188.455 159.542 188.278 159.667 188.078 159.74C187.875 159.805 187.658 159.819 187.448 159.78C187.33 159.76 187.233 159.72 187.113 159.68C187.004 159.63 186.905 159.562 186.819 159.48C186.73 159.389 186.663 159.281 186.622 159.163C186.577 159.021 186.564 158.871 186.583 158.723C186.606 158.528 186.697 158.345 186.839 158.206C186.98 158.079 187.16 158.001 187.351 157.986C187.572 157.949 187.796 157.942 188.019 157.966C188.275 157.986 188.53 158.006 188.786 158.066L188.766 157.906ZM188.572 158.326L188.039 158.266C187.875 158.252 187.71 158.259 187.548 158.286C187.412 158.296 187.282 158.344 187.175 158.426C187.075 158.508 187.006 158.619 186.978 158.743C186.963 158.836 186.969 158.932 186.995 159.023C187.022 159.101 187.07 159.17 187.133 159.223C187.194 159.28 187.269 159.321 187.351 159.34C187.423 159.379 187.504 159.399 187.586 159.4C187.745 159.42 187.88 159.42 187.998 159.38C188.115 159.34 188.228 159.287 188.333 159.223C188.428 159.144 188.508 159.049 188.569 158.943C188.626 158.829 188.665 158.708 188.686 158.583L188.728 158.366L188.572 158.326ZM190.675 159.76C190.675 159.837 190.636 159.917 190.557 159.997C190.478 160.057 190.401 160.097 190.301 160.077C190.212 160.062 190.13 160.02 190.066 159.957C190.013 159.889 189.985 159.805 189.986 159.72C189.986 159.64 190.028 159.56 190.104 159.48C190.135 159.445 190.175 159.419 190.22 159.404C190.265 159.39 190.314 159.389 190.36 159.4C190.46 159.4 190.536 159.457 190.595 159.52C190.654 159.577 190.695 159.66 190.675 159.76ZM194.672 158.763C194.664 159.173 194.495 159.564 194.201 159.857C194.054 159.997 193.879 160.106 193.686 160.177C193.481 160.253 193.262 160.288 193.043 160.281C192.823 160.274 192.607 160.225 192.407 160.137C192.218 160.058 192.048 159.941 191.909 159.793C191.77 159.645 191.665 159.47 191.601 159.28C191.526 159.076 191.492 158.86 191.501 158.643C191.509 158.232 191.679 157.84 191.975 157.546C192.124 157.403 192.303 157.291 192.5 157.22C192.696 157.148 192.906 157.117 193.116 157.129C193.326 157.132 193.534 157.176 193.727 157.258C193.92 157.34 194.094 157.458 194.239 157.606C194.375 157.749 194.475 157.926 194.554 158.126C194.651 158.326 194.692 158.526 194.672 158.763ZM194.219 158.743C194.219 158.581 194.199 158.42 194.16 158.263C194.115 158.12 194.042 157.986 193.944 157.87C193.846 157.755 193.726 157.659 193.589 157.589C193.44 157.526 193.281 157.485 193.119 157.469C192.956 157.461 192.794 157.488 192.642 157.546C192.51 157.603 192.39 157.684 192.289 157.786C192.188 157.898 192.108 158.026 192.054 158.166C191.991 158.311 191.957 158.466 191.954 158.623C191.954 158.784 191.974 158.944 192.013 159.1C192.054 159.243 192.13 159.38 192.23 159.5C192.326 159.613 192.447 159.703 192.583 159.765C192.719 159.827 192.868 159.858 193.019 159.857C193.18 159.863 193.34 159.836 193.489 159.777C193.622 159.721 193.742 159.641 193.842 159.54C193.945 159.429 194.025 159.3 194.08 159.16C194.198 159.06 194.219 158.903 194.219 158.743ZM195.595 157.569C195.593 157.454 195.579 157.341 195.554 157.229L195.969 157.209C195.986 157.293 195.993 157.38 195.989 157.466C195.989 157.569 196.007 157.649 196.007 157.706H196.028C196.104 157.533 196.226 157.382 196.38 157.269C196.539 157.15 196.734 157.087 196.933 157.089H197.089C197.136 157.086 197.183 157.092 197.228 157.109L197.189 157.529C197.169 157.529 197.13 157.509 197.072 157.509H196.895C196.778 157.507 196.663 157.534 196.56 157.589C196.45 157.637 196.355 157.712 196.283 157.806C196.201 157.913 196.141 158.036 196.107 158.166C196.065 158.335 196.045 158.509 196.048 158.683L196.107 160.217L195.675 160.237L195.595 157.906V157.569ZM198.33 160.674C198.479 160.825 198.66 160.941 198.86 161.014C199.071 161.101 199.304 161.129 199.53 161.094C199.716 161.077 199.896 161.022 200.06 160.934C200.191 160.862 200.304 160.762 200.39 160.641C200.475 160.52 200.532 160.382 200.554 160.237C200.581 160.086 200.588 159.933 200.575 159.78L200.516 159.22H200.495C200.402 159.418 200.252 159.585 200.063 159.7C199.879 159.819 199.67 159.893 199.451 159.917C199.241 159.945 199.027 159.931 198.822 159.877C198.635 159.827 198.461 159.739 198.312 159.619C198.163 159.499 198.042 159.349 197.957 159.18C197.857 158.995 197.797 158.792 197.78 158.583C197.763 158.377 197.776 158.169 197.819 157.966C197.872 157.78 197.958 157.605 198.075 157.449C198.188 157.293 198.336 157.163 198.507 157.069C198.693 156.956 198.904 156.887 199.122 156.866C199.34 156.845 199.561 156.873 199.766 156.949C199.978 157.022 200.163 157.154 200.298 157.329H200.319L200.26 156.812L200.692 156.772L201.007 159.72C201.026 159.892 201.026 160.065 201.007 160.237C200.98 160.437 200.908 160.628 200.796 160.797C200.685 160.966 200.535 161.108 200.36 161.214C200.118 161.349 199.849 161.43 199.572 161.452C199.306 161.486 199.036 161.458 198.783 161.372C198.533 161.297 198.299 161.175 198.095 161.014L198.33 160.674ZM198.172 158.563C198.19 158.714 198.23 158.862 198.289 159.003C198.417 159.262 198.644 159.461 198.922 159.56C199.06 159.6 199.216 159.617 199.392 159.6C199.542 159.582 199.686 159.536 199.818 159.464C199.949 159.392 200.064 159.296 200.157 159.18C200.295 158.991 200.378 158.768 200.395 158.537C200.413 158.305 200.365 158.073 200.257 157.866C200.117 157.603 199.878 157.404 199.589 157.309C199.443 157.265 199.289 157.252 199.136 157.269C198.983 157.279 198.834 157.324 198.701 157.4C198.568 157.476 198.456 157.58 198.372 157.706C198.289 157.828 198.229 157.964 198.195 158.106C198.167 158.257 198.16 158.41 198.172 158.563ZM202.186 159.68L201.813 159.62L202.836 154.717L203.21 154.777L202.186 159.68ZM205.454 156.514C205.358 156.412 205.237 156.335 205.101 156.292C204.954 156.259 204.8 156.26 204.653 156.294C204.506 156.329 204.369 156.397 204.254 156.492C204.213 156.547 204.18 156.607 204.157 156.672C204.138 156.743 204.138 156.818 204.157 156.889C204.195 157.032 204.275 157.109 204.392 157.169C204.578 157.217 204.771 157.237 204.963 157.229C205.243 157.198 205.527 157.239 205.786 157.349C205.986 157.449 206.104 157.606 206.163 157.826C206.203 157.97 206.203 158.122 206.163 158.266C206.124 158.387 206.064 158.501 205.986 158.603C205.8 158.792 205.56 158.924 205.298 158.983C205.079 159.04 204.85 159.047 204.628 159.003C204.4 158.96 204.189 158.856 204.019 158.703L204.295 158.366C204.392 158.483 204.53 158.566 204.686 158.603C204.851 158.66 205.029 158.667 205.198 158.623C205.298 158.603 205.375 158.566 205.454 158.543C205.527 158.508 205.594 158.46 205.651 158.403C205.71 158.346 205.73 158.286 205.769 158.203C205.788 158.118 205.788 158.031 205.769 157.946C205.755 157.873 205.72 157.806 205.668 157.753C205.616 157.7 205.548 157.663 205.475 157.646C205.248 157.601 205.017 157.582 204.786 157.589H204.492C204.392 157.589 204.295 157.549 204.198 157.509C204.1 157.467 204.011 157.406 203.939 157.329C203.851 157.242 203.796 157.129 203.78 157.009C203.741 156.878 203.741 156.739 203.78 156.609C203.811 156.49 203.867 156.379 203.945 156.282C204.023 156.186 204.121 156.108 204.233 156.052C204.35 155.985 204.477 155.939 204.61 155.914C204.81 155.865 205.019 155.865 205.219 155.914C205.416 155.95 205.595 156.048 205.73 156.192L205.454 156.514ZM209.725 155.994C209.799 156.199 209.826 156.416 209.804 156.632C209.792 156.833 209.739 157.03 209.648 157.212C209.557 157.393 209.43 157.555 209.275 157.689C208.941 157.968 208.512 158.117 208.072 158.106C207.871 158.095 207.676 158.04 207.501 157.946C207.323 157.855 207.164 157.734 207.03 157.589C206.749 157.252 206.608 156.825 206.636 156.392C206.649 156.19 206.702 155.993 206.792 155.812C206.883 155.63 207.01 155.468 207.166 155.334C207.505 155.052 207.94 154.903 208.386 154.917C208.587 154.928 208.782 154.983 208.957 155.077C209.145 155.167 209.311 155.295 209.443 155.453C209.575 155.61 209.67 155.794 209.722 155.992L209.725 155.994ZM209.313 156.134C209.265 155.984 209.191 155.842 209.095 155.714C209.003 155.596 208.89 155.495 208.76 155.417C208.637 155.338 208.495 155.289 208.348 155.274C208.189 155.255 208.027 155.276 207.878 155.334C207.726 155.391 207.586 155.472 207.463 155.574C207.353 155.678 207.265 155.802 207.204 155.939C207.144 156.076 207.112 156.223 207.11 156.372C207.11 156.532 207.128 156.692 207.186 156.852C207.234 157.002 207.308 157.143 207.404 157.269C207.495 157.388 207.609 157.49 207.739 157.569C207.87 157.647 208.018 157.696 208.171 157.71C208.324 157.723 208.478 157.703 208.622 157.649C208.78 157.589 208.916 157.506 209.036 157.409C209.15 157.31 209.238 157.187 209.292 157.049C209.345 156.908 209.378 156.761 209.389 156.612C209.374 156.451 209.349 156.292 209.313 156.134ZM212.322 154C212.199 153.918 212.055 153.869 211.906 153.859C211.757 153.849 211.608 153.878 211.475 153.943C211.322 154.001 211.187 154.097 211.083 154.22C210.986 154.335 210.907 154.463 210.848 154.6C210.808 154.743 210.788 154.89 210.789 155.037C210.789 155.197 210.828 155.357 210.907 155.517C210.966 155.674 211.063 155.814 211.16 155.914C211.254 156.027 211.375 156.115 211.513 156.172C211.654 156.239 211.81 156.274 211.967 156.274C212.125 156.274 212.28 156.239 212.422 156.172C212.578 156.11 212.713 156.007 212.813 155.874C212.907 155.766 212.969 155.635 212.989 155.494L213.383 155.594C213.333 155.791 213.24 155.976 213.11 156.134C212.961 156.308 212.771 156.445 212.557 156.534C212.353 156.624 212.133 156.677 211.91 156.692C211.708 156.699 211.506 156.665 211.319 156.592C211.134 156.511 210.967 156.397 210.828 156.254C210.527 155.938 210.352 155.528 210.333 155.097C210.333 154.897 210.354 154.697 210.433 154.52C210.507 154.333 210.621 154.163 210.769 154.023C210.918 153.86 211.107 153.736 211.319 153.663C211.51 153.58 211.718 153.539 211.928 153.543C212.163 153.543 212.339 153.6 212.539 153.703L212.322 154.003V154Z" fill="white"/>
</g>
</g>
</g>
</g>
</g>
<defs>
<filter id="filter0_ddd_2291_16694" x="108.333" y="35" width="170" height="171" filterUnits="userSpaceOnUse" color-interpolation-filters="sRGB">
<feFlood flood-opacity="0" result="BackgroundImageFix"/>
<feColorMatrix in="SourceAlpha" type="matrix" values="0 0 0 0 0 0 0 0 0 0 0 0 0 0 0 0 0 0 127 0" result="hardAlpha"/>
<feOffset/>
<feGaussianBlur stdDeviation="0.5"/>
<feColorMatrix type="matrix" values="0 0 0 0 0 0 0 0 0 0 0 0 0 0 0 0 0 0 0.24 0"/>
<feBlend mode="normal" in2="BackgroundImageFix" result="effect1_dropShadow_2291_16694"/>
<feColorMatrix in="SourceAlpha" type="matrix" values="0 0 0 0 0 0 0 0 0 0 0 0 0 0 0 0 0 0 127 0" result="hardAlpha"/>
<feOffset dy="2"/>
<feGaussianBlur stdDeviation="1"/>
<feColorMatrix type="matrix" values="0 0 0 0 0.121569 0 0 0 0 0.156863 0 0 0 0 0.215686 0 0 0 0.04 0"/>
<feBlend mode="normal" in2="effect1_dropShadow_2291_16694" result="effect2_dropShadow_2291_16694"/>
<feColorMatrix in="SourceAlpha" type="matrix" values="0 0 0 0 0 0 0 0 0 0 0 0 0 0 0 0 0 0 127 0" result="hardAlpha"/>
<feOffset dy="5"/>
<feGaussianBlur stdDeviation="2.5"/>
<feColorMatrix type="matrix" values="0 0 0 0 0.121569 0 0 0 0 0.156863 0 0 0 0 0.215686 0 0 0 0.04 0"/>
<feBlend mode="normal" in2="effect2_dropShadow_2291_16694" result="effect3_dropShadow_2291_16694"/>
<feBlend mode="normal" in="SourceGraphic" in2="effect3_dropShadow_2291_16694" result="shape"/>
</filter>
<filter id="filter1_ddd_2291_16694" x="118.333" y="45" width="150" height="151" filterUnits="userSpaceOnUse" color-interpolation-filters="sRGB">
<feFlood flood-opacity="0" result="BackgroundImageFix"/>
<feColorMatrix in="SourceAlpha" type="matrix" values="0 0 0 0 0 0 0 0 0 0 0 0 0 0 0 0 0 0 127 0" result="hardAlpha"/>
<feOffset/>
<feGaussianBlur stdDeviation="0.5"/>
<feColorMatrix type="matrix" values="0 0 0 0 0 0 0 0 0 0 0 0 0 0 0 0 0 0 0.24 0"/>
<feBlend mode="normal" in2="BackgroundImageFix" result="effect1_dropShadow_2291_16694"/>
<feColorMatrix in="SourceAlpha" type="matrix" values="0 0 0 0 0 0 0 0 0 0 0 0 0 0 0 0 0 0 127 0" result="hardAlpha"/>
<feOffset dy="2"/>
<feGaussianBlur stdDeviation="1"/>
<feColorMatrix type="matrix" values="0 0 0 0 0.121569 0 0 0 0 0.156863 0 0 0 0 0.215686 0 0 0 0.04 0"/>
<feBlend mode="normal" in2="effect1_dropShadow_2291_16694" result="effect2_dropShadow_2291_16694"/>
<feColorMatrix in="SourceAlpha" type="matrix" values="0 0 0 0 0 0 0 0 0 0 0 0 0 0 0 0 0 0 127 0" result="hardAlpha"/>
<feOffset dy="5"/>
<feGaussianBlur stdDeviation="2.5"/>
<feColorMatrix type="matrix" values="0 0 0 0 0.121569 0 0 0 0 0.156863 0 0 0 0 0.215686 0 0 0 0.04 0"/>
<feBlend mode="normal" in2="effect2_dropShadow_2291_16694" result="effect3_dropShadow_2291_16694"/>
<feBlend mode="normal" in="SourceGraphic" in2="effect3_dropShadow_2291_16694" result="shape"/>
</filter>
<filter id="filter2_ddd_2291_16694" x="128.333" y="55" width="130" height="131" filterUnits="userSpaceOnUse" color-interpolation-filters="sRGB">
<feFlood flood-opacity="0" result="BackgroundImageFix"/>
<feColorMatrix in="SourceAlpha" type="matrix" values="0 0 0 0 0 0 0 0 0 0 0 0 0 0 0 0 0 0 127 0" result="hardAlpha"/>
<feOffset/>
<feGaussianBlur stdDeviation="0.5"/>
<feColorMatrix type="matrix" values="0 0 0 0 0 0 0 0 0 0 0 0 0 0 0 0 0 0 0.24 0"/>
<feBlend mode="normal" in2="BackgroundImageFix" result="effect1_dropShadow_2291_16694"/>
<feColorMatrix in="SourceAlpha" type="matrix" values="0 0 0 0 0 0 0 0 0 0 0 0 0 0 0 0 0 0 127 0" result="hardAlpha"/>
<feOffset dy="2"/>
<feGaussianBlur stdDeviation="1"/>
<feColorMatrix type="matrix" values="0 0 0 0 0.121569 0 0 0 0 0.156863 0 0 0 0 0.215686 0 0 0 0.04 0"/>
<feBlend mode="normal" in2="effect1_dropShadow_2291_16694" result="effect2_dropShadow_2291_16694"/>
<feColorMatrix in="SourceAlpha" type="matrix" values="0 0 0 0 0 0 0 0 0 0 0 0 0 0 0 0 0 0 127 0" result="hardAlpha"/>
<feOffset dy="5"/>
<feGaussianBlur stdDeviation="2.5"/>
<feColorMatrix type="matrix" values="0 0 0 0 0.121569 0 0 0 0 0.156863 0 0 0 0 0.215686 0 0 0 0.04 0"/>
<feBlend mode="normal" in2="effect2_dropShadow_2291_16694" result="effect3_dropShadow_2291_16694"/>
<feBlend mode="normal" in="SourceGraphic" in2="effect3_dropShadow_2291_16694" result="shape"/>
</filter>
<filter id="filter3_ii_2291_16694" x="143.951" y="62.8439" width="98.3942" height="71.5057" filterUnits="userSpaceOnUse" color-interpolation-filters="sRGB">
<feFlood flood-opacity="0" result="BackgroundImageFix"/>
<feBlend mode="normal" in="SourceGraphic" in2="BackgroundImageFix" result="shape"/>
<feColorMatrix in="SourceAlpha" type="matrix" values="0 0 0 0 0 0 0 0 0 0 0 0 0 0 0 0 0 0 127 0" result="hardAlpha"/>
<feOffset dy="1.54366"/>
<feGaussianBlur stdDeviation="2.31548"/>
<feComposite in2="hardAlpha" operator="arithmetic" k2="-1" k3="1"/>
<feColorMatrix type="matrix" values="0 0 0 0 1 0 0 0 0 1 0 0 0 0 1 0 0 0 0.04 0"/>
<feBlend mode="normal" in2="shape" result="effect1_innerShadow_2291_16694"/>
<feColorMatrix in="SourceAlpha" type="matrix" values="0 0 0 0 0 0 0 0 0 0 0 0 0 0 0 0 0 0 127 0" result="hardAlpha"/>
<feOffset dy="-3.33333"/>
<feGaussianBlur stdDeviation="3.33333"/>
<feComposite in2="hardAlpha" operator="arithmetic" k2="-1" k3="1"/>
<feColorMatrix type="matrix" values="0 0 0 0 1 0 0 0 0 1 0 0 0 0 1 0 0 0 0.22 0"/>
<feBlend mode="normal" in2="effect1_innerShadow_2291_16694" result="effect2_innerShadow_2291_16694"/>
</filter>
<filter id="filter4_ii_2291_16694" x="146.822" y="93.6867" width="92.647" height="73.6573" filterUnits="userSpaceOnUse" color-interpolation-filters="sRGB">
<feFlood flood-opacity="0" result="BackgroundImageFix"/>
<feBlend mode="normal" in="SourceGraphic" in2="BackgroundImageFix" result="shape"/>
<feColorMatrix in="SourceAlpha" type="matrix" values="0 0 0 0 0 0 0 0 0 0 0 0 0 0 0 0 0 0 127 0" result="hardAlpha"/>
<feOffset dy="1.54366"/>
<feGaussianBlur stdDeviation="2.31548"/>
<feComposite in2="hardAlpha" operator="arithmetic" k2="-1" k3="1"/>
<feColorMatrix type="matrix" values="0 0 0 0 1 0 0 0 0 1 0 0 0 0 1 0 0 0 0.04 0"/>
<feBlend mode="normal" in2="shape" result="effect1_innerShadow_2291_16694"/>
<feColorMatrix in="SourceAlpha" type="matrix" values="0 0 0 0 0 0 0 0 0 0 0 0 0 0 0 0 0 0 127 0" result="hardAlpha"/>
<feOffset dy="-3.33333"/>
<feGaussianBlur stdDeviation="3.33333"/>
<feComposite in2="hardAlpha" operator="arithmetic" k2="-1" k3="1"/>
<feColorMatrix type="matrix" values="0 0 0 0 1 0 0 0 0 1 0 0 0 0 1 0 0 0 0.22 0"/>
<feBlend mode="normal" in2="effect1_innerShadow_2291_16694" result="effect2_innerShadow_2291_16694"/>
</filter>
<filter id="filter5_ii_2291_16694" x="149.46" y="68.424" width="86.4088" height="68.1204" filterUnits="userSpaceOnUse" color-interpolation-filters="sRGB">
<feFlood flood-opacity="0" result="BackgroundImageFix"/>
<feBlend mode="normal" in="SourceGraphic" in2="BackgroundImageFix" result="shape"/>
<feColorMatrix in="SourceAlpha" type="matrix" values="0 0 0 0 0 0 0 0 0 0 0 0 0 0 0 0 0 0 127 0" result="hardAlpha"/>
<feOffset dy="1.54366"/>
<feGaussianBlur stdDeviation="2.31548"/>
<feComposite in2="hardAlpha" operator="arithmetic" k2="-1" k3="1"/>
<feColorMatrix type="matrix" values="0 0 0 0 1 0 0 0 0 1 0 0 0 0 1 0 0 0 0.04 0"/>
<feBlend mode="normal" in2="shape" result="effect1_innerShadow_2291_16694"/>
<feColorMatrix in="SourceAlpha" type="matrix" values="0 0 0 0 0 0 0 0 0 0 0 0 0 0 0 0 0 0 127 0" result="hardAlpha"/>
<feOffset dy="-3.33333"/>
<feGaussianBlur stdDeviation="3.33333"/>
<feComposite in2="hardAlpha" operator="arithmetic" k2="-1" k3="1"/>
<feColorMatrix type="matrix" values="0 0 0 0 1 0 0 0 0 1 0 0 0 0 1 0 0 0 0.22 0"/>
<feBlend mode="normal" in2="effect1_innerShadow_2291_16694" result="effect2_innerShadow_2291_16694"/>
</filter>
<linearGradient id="paint0_linear_2291_16694" x1="193.148" y1="66.1772" x2="193.148" y2="132.806" gradientUnits="userSpaceOnUse">
<stop stop-color="#A3A3A3"/>
<stop offset="1" stop-color="#737373"/>
</linearGradient>
<linearGradient id="paint1_linear_2291_16694" x1="193.145" y1="97.02" x2="193.145" y2="165.803" gradientUnits="userSpaceOnUse">
<stop stop-color="#A3A3A3"/>
<stop offset="1" stop-color="#737373"/>
</linearGradient>
<linearGradient id="paint2_linear_2291_16694" x1="192.664" y1="71.7573" x2="192.664" y2="135.001" gradientUnits="userSpaceOnUse">
<stop stop-color="#A3A3A3"/>
<stop offset="1" stop-color="#737373"/>
</linearGradient>
<clipPath id="clip0_2291_16694">
<rect width="100" height="100" fill="white" transform="translate(143.333 66)"/>
</clipPath>
</defs>
</svg>
